<?xml version="1.0" encoding="utf-8"?>
<!-- Generator: Adobe Illustrator 16.0.0, SVG Export Plug-In . SVG Version: 6.00 Build 0)  -->
<!DOCTYPE svg PUBLIC "-//W3C//DTD SVG 1.1//EN" "http://www.w3.org/Graphics/SVG/1.1/DTD/svg11.dtd">
<svg version="1.1" id="Layer_1" xmlns="http://www.w3.org/2000/svg" xmlns:xlink="http://www.w3.org/1999/xlink" x="0px" y="0px"
	 width="570px" height="206.5px" viewBox="0 0 570 206.5" enable-background="new 0 0 570 206.5" xml:space="preserve">
<g>
	<g>
		<path fill="none" stroke="#231F20" stroke-width="2" stroke-linecap="round" stroke-miterlimit="10" d="M23.688,52.562
			c-3.773-6.61-7.834,3.189-6.526,8.024c2.582,7.847,11.107,8.896,16.466,3.324c10.73-10.536-8.248-18.063-14.202-11.873
			c6.225,7.775,26.087-1.723,31.446-7.293c10.134-9.916,12.84-26.979,15.01-40.384c-8.064,22.632-11.212,48.208-11.956,72.521
			c0.961,2.612,13.167-23.391,16.567-22.798c3.761,6.001,3.398,14.455,6.496,21.742c3.372,7.933,8.944,10.122,15.313,3.138"/>
		<path fill="none" stroke="#231F20" stroke-width="2" stroke-linecap="round" stroke-miterlimit="10" d="M225.941,102.313
			c0,5.466-2.43,7.11-7.287,7.11"/>
		<g>
			<path fill="none" stroke="#231F20" stroke-width="2" stroke-linecap="round" stroke-miterlimit="10" d="M430.448,100.337
				c17.531-6.145,19.466-45.177,14.486-59.515c-5.039-13.835-19.772-23.174-19.567-2.758c-0.285,15.771,13.275,39.762,26.67,47.42
				c10.049,5.741,27.062-9.378,21.173-20.25c-14.342,0.879-13.18,21.676-3.733,23.782c13.916,3.129,9.199-22.395,0.49-26.455
				c-12.562-6.031-4.175,9.717,3.142,12.598c4.914,1.584,15.424,3.301,19.408-0.32c1.741-1.839,4.777-6.079,1.43-7.993
				c-7.144-4.389-9.784,14.171-4.095,17.883c11.828,7.987,9.34-14.73,4.383-20.399c-6.794-7.408-12.521-1.947-6.56,3.835
				c3.622,3.985,12.465,2.452,16.16,1.348c12.771-4.651,18.256-21.354,16.122-33.835"/>
			<path fill="none" stroke="#231F20" stroke-width="2" stroke-linecap="round" stroke-miterlimit="10" d="M422.662,58.996
				c10.564,1.214,44.215-4.304,42.312-18.798"/>
			<g>
				<path fill="none" stroke="#231F20" stroke-width="2" stroke-linecap="round" stroke-miterlimit="10" d="M545.934,23.444
					c6.424-4.617,8.971-0.298,9.047,5.476c-0.05,6.265-7.742,15.786-10.003,22.525c-1.885,5.268-3.276,10.663-2.711,16.564"/>
				<path fill="none" stroke="#231F20" stroke-width="2" stroke-linecap="round" stroke-miterlimit="10" d="M543.333,75.76
					c0.332,1.566-0.791,2.458,0.775,2.128c0.563-0.445,0.62-0.948,0.116-1.006c-0.173,1.51-0.502-0.059-0.502-0.059"/>
			</g>
		</g>
		<path fill="none" stroke="#231F20" stroke-width="2" stroke-linecap="round" stroke-miterlimit="10" d="M115.423,44.153
			c0.926,15.764-7.998,50.185-5.14,47.147c3.246-6.882,5.244-14.301,10.38-20.077c2.948-1.547,5.455,20.365,17.795,23.291
			c10.521,3.032,21.771-25.103,12.306-18.367c-4.067,3.612-1.535,15.301,4.136,18.618c10.735,6.669,22.842-19.782,22.827-15.335
			c-0.322,4.887,1.354,12.698,7.523,14.161c8.596,1.318,12.198-9.844,15.516-15.514c5.721-4.687-8.43,86.061-21.584,77.928
			c-14.442-17.48,37.205-70.937,64.418-73.752"/>
		<path fill="none" stroke="#231F20" stroke-width="2" stroke-linecap="round" stroke-miterlimit="10" d="M261.036,70.065
			c-6.831,30.339,17.309,45.09,30.507,13.048c5.129-13.396-6.611,123.737-35.619,118.995c-11.455-10.435,27.033-54.725,38.66-70.644
			c8.875-11.536,26.506-51.956,46.572-47.488c-8.261-18.308-19.351,6.734-20.322,16.718c-2.692,27.64,20.602,11.306,22.472-7.888
			c1.645-16.892-20.117-32.189-15.921-11.627c3.507,19.718,31.031,7.673,36.837-4.163c2.159-4.032-4.399,21.274,2.363,23.482
			c8.219,3.127,16.229-26.744,17.972-25.376c1.038,21.677,15.013,23.562,30.069,18.542"/>
	</g>
	<g>
		<path fill="none" stroke="#231F20" stroke-width="2" stroke-linecap="round" stroke-miterlimit="10" d="M336.069,156.499
			c6.151,4.922,13.977,2.459,19.009-4.101"/>
		<path fill="none" stroke="#231F20" stroke-width="2" stroke-linecap="round" stroke-miterlimit="10" d="M334.223,146.697
			c1.062,1.062,1.062,1.592,1.062,0"/>
		<path fill="none" stroke="#231F20" stroke-width="2" stroke-linecap="round" stroke-miterlimit="10" d="M348.551,144.044"/>
		<path fill="none" stroke="#231F20" stroke-width="2" stroke-linecap="round" stroke-miterlimit="10" d="M348.551,142.982
			c1.062,0.53,1.592,0.53,2.123,0.53"/>
	</g>
</g>
</svg>
