<?xml version="1.0" encoding="utf-8"?>
<!-- Generator: Adobe Illustrator 16.0.0, SVG Export Plug-In . SVG Version: 6.00 Build 0)  -->
<!DOCTYPE svg PUBLIC "-//W3C//DTD SVG 1.1//EN" "http://www.w3.org/Graphics/SVG/1.1/DTD/svg11.dtd">
<svg version="1.1" id="Layer_1" xmlns="http://www.w3.org/2000/svg" xmlns:xlink="http://www.w3.org/1999/xlink" x="0px" y="0px"
	 width="600px" height="336px" viewBox="0 0 600 336" enable-background="new 0 0 600 336" xml:space="preserve">
<g display="none">
	<path display="inline" fill="#231F20" d="M198.746,199.407c-2.962,0-5.617-0.998-7.719-2.902
		c-4.881-3.733-9.417-11.575-5.51-27.964c-3.965,3.287-8.172,6.584-12.48,9.727c-19.82,14.459-34.686,20.676-44.193,18.481
		l-0.164-0.042c-8.312-2.273-14.776-8.432-19.214-18.302c-5.291-11.771-7.123-28.02-6.703-43.953
		c-21.635,19.021-51.483,41.629-72.05,33.85c-11.272-4.263-18.07-16.777-20.206-37.196c-0.243-2.325,1.445-4.408,3.771-4.652
		c2.317-0.239,4.408,1.445,4.652,3.771c1.774,16.973,6.747,27.119,14.777,30.155c18.064,6.835,50.162-20.167,69.794-37.95
		c1.409-14.636,4.56-27.901,8.429-35.733c28.662-58.02,55.358-69.029,72.711-68.046c17.909,1.014,33.556,15.372,41.854,38.408
		c5.002,13.887,6.621,29.4,4.557,43.682c-2.161,14.954-8.181,27.798-17.469,37.341c-0.182,2.145-1.67,4.451-3.901,7.209
		c-2.519,3.115-6.464,7.276-11.349,11.907c-2.953,6.717-5.413,14.409-5.754,21.135c-0.285,5.616,0.957,9.491,3.689,11.518
		l0.392,0.329c0.418,0.396,1.001,0.799,2.25,0.755c9.183-0.306,27.893-20.581,36.883-30.326c2.698-2.923,5.028-5.449,6.814-7.218
		c2.104-2.085,4.988-4.943,8.293-3.103c0.75,0.417,3.115,2.082,2.035,5.987l-0.047,0.158c-5.758,18.073-1.506,30.281,5.67,33
		c7.165,2.714,19-3.694,28.052-24.188l0.341-0.772l0.612-0.583c1.959-1.865,4.26-1.642,5.635-0.886
		c1.262,0.694,2.029,1.71,2.404,3.297c6.535-12.846,12.321-20.907,18.99-19.757l0.553,0.096l0.51,0.237
		c6.318,2.938,10.731,14.136,13.124,23.181c7.367-14.106,12.343-22.717,18.297-22.717c0.089,0,0.179,0.001,0.269,0.005
		c1.5,0.065,4.255,0.752,5.869,4.628l0.204,0.49l0.077,0.524c1.121,7.672,5.627,13.32,12.363,15.497
		c8.815,2.848,19.407-0.65,27.638-9.131c0.987-1.018,1.914-2.088,2.781-3.2c-1.049-0.717-2.037-1.51-2.952-2.378
		c-4.366-4.144-10.546-13.554-2.88-30.031c4.819-10.358,9.657-15.398,14.785-15.398c0.061,0,0.122,0,0.184,0.002
		c1.983,0.047,5.645,0.938,7.874,6.387c3.28,8.013,2.355,23.734-4.635,37.609c7.788,1.865,17.56,0.977,24.866-2.902
		c7.771-4.122,16.689-11.816,24.898-20.684c-4.376-7.53-4.83-18.05-1.155-29.534c3.835-11.984,12.721-25.392,23.926-28.33
		l1.027-0.27l1.031,0.248c5.786,1.384,9.375,5.306,10.104,11.042c1.664,13.087-12.364,32.769-18.475,40.624
		c-1.713,2.204-3.478,4.365-5.277,6.466c20.222,16.417,79.861-19.068,113.169-43.647c1.881-1.388,4.531-0.989,5.922,0.893
		c1.388,1.882,0.987,4.533-0.894,5.921c-22.532,16.627-95.717,67.024-123.872,43.147c-9.067,9.609-18.536,17.414-26.435,21.605
		c-9.177,4.869-22.619,6.385-33.411,2.958c-1.363,1.877-2.863,3.678-4.505,5.371c-10.493,10.812-24.41,15.14-36.319,11.291
		c-8.712-2.815-15.046-9.752-17.44-18.89c-3.087,3.979-7.56,12.553-9.716,16.686c-4.745,9.093-6.342,12.158-10.261,11.209
		c-0.564-0.137-3.336-0.991-3.484-4.641c-1.022-9.408-5.862-22.398-9.375-25.709c-4.346,2.824-12.599,20.497-15.402,26.5
		c-1.199,2.568-2.235,4.787-3.056,6.387c-1.033,2.013-2.761,5.379-6.326,4.543c-1.624-0.382-3.493-1.887-3.419-4.877l0.009-0.364
		l0.071-0.356c0.175-0.883,0.349-1.791,0.518-2.708c-10.395,13.685-21.884,16.037-29.815,13.029
		c-6.178-2.339-10.683-7.913-12.684-15.689c-1.183-4.591-1.442-9.786-0.795-15.377c-0.021,0.022-0.042,0.044-0.062,0.067
		c-15.864,17.191-31.076,32.653-42.824,33.046C199.042,199.404,198.894,199.407,198.746,199.407z M130.827,188.515
		c7.477,1.649,23.375-6.242,42.587-21.126c6.826-5.289,12.939-10.583,17.942-15.262c3.624-7.963,8.723-16.849,13.619-19.413
		c1.846-14.273,1.109-31.171-10.568-37.889c-17.413-10.019-50.72,4.587-74.658,24.211c-1.228,1.119-2.566,2.35-4,3.667
		c-1.26,1.159-2.586,2.379-3.97,3.644c-1.362,17.043-0.323,35.832,5.41,48.585C120.523,182.35,125.111,186.918,130.827,188.515z
		 M404.991,117.014c-0.91,0.606-3.381,2.812-6.866,10.304c-4.142,8.901-3.795,15.736,1.03,20.316
		c0.512,0.484,1.071,0.939,1.673,1.363c4.46-8.672,6.183-18.342,5.729-25.371C406.308,119.789,405.494,117.792,404.991,117.014z
		 M180.833,83.187c6.566,0,12.619,1.319,17.796,4.298c12.612,7.257,15.881,21.91,15.538,36.174
		c11.833-19.014,11.117-44.972,4.36-63.729c-7.11-19.737-19.957-32.008-34.366-32.823c-20.883-1.167-43.876,21.311-64.64,63.342
		c-2.406,4.87-4.669,13.186-6.221,23.006c0.281-0.257,0.557-0.508,0.827-0.753l0.163-0.142
		C133.63,96.682,159.838,83.187,180.833,83.187z M482.293,79.418c-6.509,2.428-13.506,11.584-16.964,22.388
		c-2.444,7.641-2.688,14.729-0.816,20.001c12.205-14.699,21.459-30.795,20.439-38.825C484.748,81.384,484.188,80.147,482.293,79.418
		z"/>
	<path display="inline" fill="#231F20" d="M272.055,106.388c-1.989,0-3.764-1.409-4.153-3.435c-0.442-2.296,1.061-4.516,3.357-4.958
		c21.04-4.05,30.742-12.036,46.081-25.803c1.737-1.561,4.415-1.418,5.979,0.323c1.562,1.74,1.418,4.417-0.322,5.979
		c-15.974,14.337-26.942,23.351-50.136,27.815C272.59,106.363,272.32,106.388,272.055,106.388z"/>
</g>
<g>
	<g>
		<path d="M241.325,264.183h-10.966v-9.1h31.681v9.1h-10.967v52.638h-9.748V264.183z"/>
		<path d="M275.265,304.636v-37.367c0-8.123,5.28-13.403,13.403-13.403c8.042,0,13.403,5.361,13.403,13.403v37.367
			c0,8.123-5.28,13.403-13.403,13.403C280.626,318.039,275.265,312.678,275.265,304.636z M292.323,305.285v-38.667
			c0-2.193-1.462-3.655-3.655-3.655s-3.655,1.462-3.655,3.655v38.667c0,2.194,1.462,3.655,3.655,3.655
			S292.323,307.479,292.323,305.285z"/>
		<path d="M319.674,255.083h13.402c8.043,0,13.403,5.362,13.403,13.404v34.93c0,8.123-5.279,13.403-13.403,13.403h-13.402V255.083z
			 M333.076,307.722c2.194,0,3.656-1.462,3.656-3.655v-36.229c0-2.194-1.462-3.655-3.656-3.655h-3.654v43.539H333.076z"/>
		<path d="M368.984,255.083h13.728l8.61,61.737h-9.747l-1.707-13.892h-8.123l-1.624,13.892h-9.83L368.984,255.083z M378.812,293.832
			l-3.007-24.045l-2.924,24.045H378.812z"/>
		<path d="M411.633,288.795l-12.267-33.712h10.397l6.742,18.603l6.742-18.603h10.398l-12.267,33.712v28.025h-9.747V288.795z"/>
	</g>
	<g>
		<path fill-rule="evenodd" clip-rule="evenodd" d="M309.541,207.564c-1.05,3.443-1.683,6.463-2.889,9.228
			c-1.248,2.854-2.829,5.64-4.672,8.147c-2.111,2.869-5.791,3.4-9.651,1.621c-8.275-3.816-12.307-10.938-14.664-19.288
			c-0.788-2.799-1.39-5.647-2.127-8.691c-3.492,1.108-3.489,4.033-4.286,6.471c-1.975,5.993-3.465,12.225-6.128,17.905
			c-4.048,8.624-12.314,9.802-19.437,3.318c-6.618-6.023-8.982-14.229-11.132-22.434c-1.068-4.082-1.73-8.317-2.088-12.523
			c-0.346-4.161-0.078-8.375-0.812-12.675c-2.419,7.785-5.025,15.509-7.228,23.341c-17.386,48.433-21.276,53.139-27.761,58.332
			c-4.233,4.904-17.321,7.415-29.34-1.533c-20.268-20.506-23.062-39.888-26.395-60.81c-1.325-11.146-1.779-36.759,2.45-59.24
			c0.096-0.524,0.014-1.09,0.014-2.058c-5.944,4.842-9.045,11.225-11.8,17.54c-4.912,11.289-9.47,22.766-13.495,34.398
			c-2.868,8.289-4.485,17.007-6.914,25.458c-2.83,9.845-6.879,18.926-15.546,25.341c-9.265,6.866-23.1,7.045-32.212-0.088
			c-12.02-9.399-16.835-22.211-16.088-36.95c0.262-5.135,3.739-15.069,6.299-15.301c0.622-0.292,1.843,2.377,2.519,3.7
			c4.062,7.929,7.663,16.128,12.193,23.776c3.732,6.298,9.98,9.49,17.359,9.989c6.47,0.43,11.446-2.469,14.036-8.182
			c4.458-9.826,8.614-19.816,12.348-29.936c3.78-10.247,6.929-20.742,10.284-31.15c0.574-1.776,5.117-16.451,14.299-26.919
			c3.779-4.312,7.471-8.75,11.043-13.259c1.99-2.519,4.056-5.179,5.259-8.113c12.288-30.045,30.3-56.042,54.834-77.336
			c4.299-3.726,9.49-6.479,14.461-9.351c6.86-3.959,13.384-2.626,19.354,2.112c7.644,6.07,11.887,14.471,15.479,23.25
			c5.32,12.997,5.831,26.766,6.329,40.529c0.282,7.817,0.121,15.689,0.976,23.444c1.086,9.856,3.063,19.602,4.516,29.421
			c0.559,3.76,0.938,7.466-2.276,10.667c-2.436,2.414-3.941,5.791-6.483,8.037c-1.365,1.21-4.036,1.237-6.127,1.258
			c-2.261,0.03-3.235-1.436-3.558-3.823c-0.428-3.194-1.483-6.306-2.396-9.944c-3.524,4.645-5.037,9.638-5.724,14.77
			c-1.506,11.339-2.46,22.786,1.211,33.907c1.493,4.519,3.524,9.014,6.107,12.988c3.688,5.677,10.868,6.642,14.433,2.188
			c1.517-1.896,1.938-4.664,2.852-7.04c2.099-5.457,4.05-10.977,6.39-16.327c0.706-1.605,2.308-3.023,3.83-4.036
			c3.35-2.225,6.45-1.12,7.604,2.644c1.196,3.917,2.013,7.943,3.201,11.863c1.553,5.132,4.367,9.399,9.455,11.65
			c3.478,1.537,4.304,0.837,5.516-2.675c1.675-4.835,3.504-9.662,5.71-14.278c1.647-3.454,5.411-4.086,8.596-1.823
			c2.384,1.708,4.519,3.767,6.931,5.424c5.996,4.129,11.721,3.941,17.572-0.426c5.957-4.45,12.394-5.051,18.944-1.809
			c4.189,2.081,8.184,4.661,11.979,7.405c10.136,7.327,21.246,11.869,33.801,12.616c0.697,0.044,1.406,0.128,2.101,0.061
			c0.68-0.067,1.343-0.306,2.03-0.477c-3.617-10.476-1.244-19.99,4.029-29.083c1.238-2.132,2.615-4.17,3.928-6.257
			c3.619-5.768,6.686-5.802,13.672-4.241c3.771,0.84,7.126,5.091,6.937,9.929c-0.256,6.528-1.161,13.059-2.306,19.5
			c-0.48,2.716-0.143,4.05,2.391,5.209c8.523,3.894,17.066,3.866,25.741,0.619c2.163-0.811,3.024-1.796,2.496-4.448
			c-2.336-11.641,1.851-21.249,10.107-29.251c2.399-2.327,5.528-3.33,9.053-2.657c3.754,0.72,6.67,2.051,7.183,5.868
			c0.353,2.653,0.665,10.18-4.477,18.036c-3.478,5.294-2.713,7.061,2.266,10.067c14.134,8.532,34.914,9.998,40.977,8.338
			c8.711-2.393,14.325-9.629,17.794-16.913c1.446-3.032,2.316-3.353,2.316-2.366c0,2.861-4.107,17.829-9.122,24.552
			c-2.975,5.294-12.004,10.629-17.939,11.314c-4.596,0.528-11.473,1.329-16.543,0.495c-6.428-1.066-12.804-3.102-18.856-5.557
			c-5.933-2.404-10.827-5.851-16.863-9.021c-6.116,8.534-15.715,13.223-26.666,14.212c-7.323,0.651-14.225-1.128-20.96-3.936
			c-1.246-0.515-3.137-0.387-4.402,0.178c-8.091,3.598-16.405,5.604-25.322,4.386c-15.377-2.092-29.25-7.711-41.553-17.258
			c-5.259-4.086-10.772-5.058-16.845-0.854c-7.285,5.036-14.717,3.746-21.822-0.845C313.777,210.555,311.794,209.11,309.541,207.564
			z M148.905,171.84c0.162,2.523,0.263,7.301,0.838,12.029c1.385,11.292,3.804,22.334,7.407,33.175
			c2.677,8.061,5.839,15.829,10.971,22.549c8.753,11.443,19.231,13.372,28.536,0.894c3.128-4.197,6.113-8.646,8.333-13.356
			c5.172-10.994,10.176-22.085,14.636-33.376c5.124-12.991,9.459-26.295,14.393-39.37c2.657-7.024,5.935-13.815,8.736-20.789
			c0.545-1.355,0.686-3.275,0.161-4.597c-7.438-18.617-25.244-28.295-44.91-24.585c-12.137,2.289-22.807,7.977-32.854,14.763
			c-3.023,2.041-5.619,5.448-7.143,8.803c-3.279,7.237-5.7,14.763-7.334,22.686C149.35,157.034,148.952,163.215,148.905,171.84z
			 M249.413,98.864c0.154-0.881,0.275-1.308,0.29-1.738c0.615-18.33-3.498-35.471-13.135-51.154c-1.71-2.784-3.66-5.606-6.101-7.719
			c-5.565-4.814-9.585-5.705-14.326-2.893c-6.195,3.684-11.265,8.653-15.159,14.53c-6.676,10.069-12.86,20.468-19.067,30.835
			c-2.495,4.164-4.52,8.612-7.072,13.542C200.757,82.307,225.652,77.937,249.413,98.864z"/>
		<path fill-rule="evenodd" clip-rule="evenodd" d="M335.724,101.169c0,1.71-5.354,9.562-7.923,14.051
			c-0.754,1.315-1.992,2.442-2.433,3.834c-1.253,3.948-4.73,5.178-7.78,4.735c-3.642-0.531-7.112-2.617-10.418-4.463
			c-0.595-0.333-0.454-2.97,0.104-4.187c1.586-3.447,3.372-6.841,5.488-9.976c0.771-1.147,2.64-1.984,4.105-2.164
			C322.914,102.244,335.246,100.053,335.724,101.169z"/>
	</g>
</g>
</svg>
