<?xml version="1.0" encoding="utf-8"?>
<!-- Generator: Adobe Illustrator 16.0.0, SVG Export Plug-In . SVG Version: 6.00 Build 0)  -->
<!DOCTYPE svg PUBLIC "-//W3C//DTD SVG 1.1//EN" "http://www.w3.org/Graphics/SVG/1.1/DTD/svg11.dtd">
<svg version="1.1" id="Layer_1" xmlns="http://www.w3.org/2000/svg" xmlns:xlink="http://www.w3.org/1999/xlink" x="0px" y="0px"
	 width="766.5px" height="213.5px" viewBox="0 0 766.5 213.5" enable-background="new 0 0 766.5 213.5" xml:space="preserve">
<g>
	<path fill="none" stroke="#D8007E" stroke-width="4" stroke-linecap="round" stroke-miterlimit="10" d="M7.509,110.814
		c13.982,20.715,28.467-0.746,41.905-8.604c26.597-13.793,43,30.291,45.086,28.039c2.615-11.407-4.608-39.801-18.489-41.832
		c-11.105-1.625-28.145,24.373-26.777,34.397c1.831,32.692,39.875,11.732,48.103-5.729C110.392,92.468,123.667-6,108.479,8.673
		C96.067,35.349,86.511,68.339,89.69,98.281c2.877,19.088,14.406,63.025,40.802,57.064c13.66-2.914,32.69-29.604,20.499-43.181
		c-5.493-7.682-9.757-4.375-12.091,5.106c-6.136,35.457,46.634,10.758,16.134-13.356c-8.55-6.165-16.234-5.324-9.314,5.515
		c6.78,11.801,42.007,10.078,50.817,1.543"/>
	<g>
		<path fill="none" stroke="#D8007E" stroke-width="4" stroke-linecap="round" stroke-miterlimit="10" d="M209.939,161.594
			c25.971,5.662,65.195-106.903,35.577-92.1c-13.826,7.565-20.56,72.369-4.112,81.415c17.27,9.047,54.796-115.897,40.883-99.397
			c-8.071,6.035-12.522,107.866-9.632,103.51c18.018-25.117,9.046-17.271,20.559-4.112c7.402,9.047,29.843,19.754,33.132-0.806
			c4.112-20.561-17.507-3.307-15.04,9.853c3.29,20.56,16.448-9.869,17.27-18.093c2.174-1.499,0.822,31.25,16.447,24.671
			c27.14-11.513,50.886-118.923,37.008-97.862c-5.6,8.156-15.518,75.88-1.646,96.219c5.896,8.643,19.352-8.158,19.352-8.158"/>
		<path fill="none" stroke="#D8007E" stroke-width="4" stroke-linecap="round" stroke-miterlimit="10" d="M346.586,117.52
			c24.699,0,60.867,3.528,79.391-14.996"/>
		<path fill="none" stroke="#D8007E" stroke-width="4" stroke-linecap="round" stroke-miterlimit="10" d="M220.443,108.99
			c16.76,3.527,29.006,1.015,45.767-1.631"/>
	</g>
	<g>
		<path fill="none" stroke="#D8007E" stroke-width="4" stroke-linecap="round" stroke-miterlimit="10" d="M436.667,177
			c30.41-7.486,39.7-53.766,41.534-79.146c0.258-7.756,3.562-40.979-6.539-45.545c-7.179-3.555-10.205,16.617-11.1,21.161
			c-2.941,15.688-2.544,94.661,29.745,85.002c20.312-6.35,27.577-46.781,30.866-63.309c3.695-16.555,5.332-33.37,6.973-50.184
			c-2.237,31.11-11.178,67.534-12.979,99.02c2,2.334,11.688-37.843,23.519-43.174c3.564-2.076-1.215,33.045,9.814,39.174
			c12.769,7.632,19.336-24.579,22.023-32.51c1.477-2.615-2.821,23.008,2.994,24.625c7.396,1.887,22.606-29.74,22.457-26.391
			c0,0,0.149,29.275,1.778,28.711c1.447-5.924,3.538-18.168,11.49-26.479c6.014-6.95,7.979-7.905,11.025,0.427
			c2.639,8.362,4.7,20.022,13.56,24.271c11.434,6.1,29.48-9.048,36.624-17.3c5.265-6.08,10.001-19.453-0.825-22.745
			c-8.739-2.629-10.846,7.705-11.595,14.273c-0.432,5.325-0.277,18.753,8.432,15.275c8.332-3.045,9.479-21.045,9.793-27.99
			c1.992-1.92,1.763,41.409,0.79,61.843c-1.004,14.323-3.628,28.766-13.025,39.623c-3.354,4.315-13.217,14.393-19.813,13.238
			c-14.008-2.249,21.607-61.827,25.685-67.415c23.421-31.008,55.97-42.72,88.947-59.757"/>
		<path fill="none" stroke="#D8007E" stroke-width="4" stroke-linecap="round" stroke-miterlimit="10" d="M587.552,58.475
			c2.976-8.015,5.333-10.446,3.729-18.605"/>
		<path fill="none" stroke="#D8007E" stroke-width="4" stroke-linecap="round" stroke-miterlimit="10" d="M450.749,118.118
			c17.774-0.302,32.729-11.177,47.686-22.053"/>
	</g>
</g>
</svg>
