<?xml version="1.0" encoding="utf-8"?>
<!-- Generator: Adobe Illustrator 16.0.0, SVG Export Plug-In . SVG Version: 6.00 Build 0)  -->
<!DOCTYPE svg PUBLIC "-//W3C//DTD SVG 1.1//EN" "http://www.w3.org/Graphics/SVG/1.1/DTD/svg11.dtd">
<svg version="1.1" id="Layer_1" xmlns="http://www.w3.org/2000/svg" xmlns:xlink="http://www.w3.org/1999/xlink" x="0px" y="0px"
	 width="600px" height="80px" viewBox="0 0 600 80" enable-background="new 0 0 600 80" xml:space="preserve">
<path fill="#0F007C" d="M5.859,64.145c6.667,3.992,15.236,4.43,22.798,4.599c11.308,0.254,22.7-1.235,33.76-3.485
	c16.366-3.331,42.904-10.056,50.024-27.557c2.933-7.209,1.278-16.313-6.533-19.417c-8.694-3.454-17.715,5.361-20.267,12.771
	c-6.275,18.223,15.557,30.248,29.653,33.273c21.109,4.53,44.291,0.902,64.607-5.524c16.405-5.19,36.875-14.058,44.812-30.531
	c3.912-8.118,2.682-21.953-7.567-24.934c-11.624-3.38-20.168,8.722-18.306,19.326c4.989,28.402,40.007,41.19,64.458,46.563
	c25.094,5.515,51.729,5.938,76.746-0.104c17.013-4.108,45.372-13.665,42.14-36.021c-2.933-20.278-30.521-19.619-36.475-1.713
	c-3.436,10.338,4.505,22.052,12.541,27.782c11.302,8.057,25.371,10.438,38.974,10.866c22.493,0.711,47.086-4.867,64.389-19.974
	c7.199-6.284,12.161-16.543,7.551-25.844c-4.068-8.206-12.047-10.96-17.495-2.322c-5.438,8.624-1.553,19.854,6.076,25.541
	c11.207,8.356,25.397,11.113,38.986,12.79c32.01,3.951,68.056,2.099,96.551-14.291c2.334-1.342,0.231-4.951-2.106-3.606
	c-30.957,17.806-72.729,18.809-107.099,11.638c-13.252-2.764-38.075-11.937-28.803-29.963c5.165-10.04,11.647,3.789,11.437,9.494
	c-0.269,7.276-7.017,13.176-12.418,17.087c-21.747,15.751-54.139,19.257-79.487,11.999c-12.646-3.621-29.798-15.855-24.706-31.173
	c3.714-11.176,20.411-12.942,26.194-2.964c14.363,24.782-32.635,36.131-47.831,38.854c-28.315,5.073-59.86,1.487-86.602-8.771
	c-14.203-5.448-29.208-14.449-36.312-28.402c-3.824-7.511-4.46-16.89,3.375-21.913c11.247-7.212,15.562,10.257,12.183,17.951
	c-7.873,17.933-33.08,26.344-50.297,30.936c-19.671,5.247-42.397,7.685-62.055,1.13c-7.924-2.643-15.307-7.755-18.373-15.787
	c-2.385-6.245-1.148-12.363,3.64-17.004c4.888-4.738,12.812-4.992,15.24,2.165c2.871,8.462-5.43,15.994-11.593,20.114
	c-9.15,6.118-20.06,9.561-30.644,12.216c-11.286,2.832-22.93,4.381-34.558,4.633c-7.893,0.17-17.5,0.165-24.502-4.029
	C5.651,59.151,3.552,62.763,5.859,64.145L5.859,64.145z"/>
</svg>
